<?xml version="1.0" encoding="utf-8"?>
<!-- Generator: Adobe Illustrator 26.0.3, SVG Export Plug-In . SVG Version: 6.00 Build 0)  -->
<svg version="1.1" id="Layer_1" xmlns="http://www.w3.org/2000/svg" xmlns:xlink="http://www.w3.org/1999/xlink" x="0px" y="0px"
	 width="300px" height="60px" viewBox="0 0 300 60" enable-background="new 0 0 300 60" xml:space="preserve">
<g>
	<path fill="#FFFFFF" d="M96.795,33.086c0,6.026-4.256,8.626-9.026,8.626c-4.789,0-9.046-2.6-9.046-8.626v-10.95h5.144v10.497
		c0,3.053,1.675,4.293,3.902,4.293c2.208,0,3.902-1.24,3.902-4.293V22.136h5.124V33.086z M119.301,29.069
		c0-4.432-3.094-7.445-7.43-7.445c-2.167,0-4.257,0.729-5.616,2.758v-2.246h-5.006V41.22h5.144V30.762
		c0-2.875,1.833-4.313,4.04-4.313c2.345,0,3.724,1.517,3.724,4.274V41.22h5.144V29.069 M128.899,22.136h-5.144V41.22h5.144V22.136z
		 M129.589,15.892c0-1.851-1.438-3.309-3.291-3.309s-3.271,1.458-3.271,3.309c0,1.852,1.418,3.27,3.271,3.27
		S129.589,17.744,129.589,15.892 M147.365,22.136h-6.917v-5.672h-5.144v5.672h-3.686v4.569h3.686v7.386
		c0,4.943,2.424,7.622,7.153,7.622c2.72,0,4.652-0.867,6.327-2.009l-1.892-4.018c-1.045,0.63-2.365,1.241-3.587,1.241
		c-1.596,0-2.857-0.867-2.857-3.25v-6.972h6.917V22.136z M155.248,29.876c0.453-2.363,1.872-3.821,4.296-3.821
		c2.207,0,3.685,1.379,4.158,3.821H155.248 M168.867,31.649c-0.02-5.948-3.784-10.025-9.282-10.025
		c-5.716,0-9.657,4.097-9.657,10.104c0,6.006,4.06,9.985,9.913,9.985c3.212,0,5.971-0.906,8.139-2.896l-3.015-3.308
		c-1.38,1.162-3.173,1.831-4.828,1.831c-2.425,0-4.356-1.201-4.908-3.958h13.539C168.826,32.949,168.867,32.24,168.867,31.649
		 M176.355,31.668c0-2.915,1.912-5.258,4.928-5.258c2.936,0,4.926,2.245,4.926,5.258c0,3.014-1.99,5.259-4.926,5.259
		C178.267,36.927,176.355,34.583,176.355,31.668 M185.953,24.125c-1.242-1.497-3.055-2.501-5.617-2.501
		c-5.261,0-9.242,4.313-9.242,10.044c0,5.731,3.981,10.045,9.242,10.045c2.621,0,4.474-1.064,5.716-2.6v2.107h5.025V12.86h-5.124
		V24.125 M202.272,37.872c0-2.048-1.774-3.801-3.804-3.801c-2.05,0-3.842,1.753-3.842,3.801c0,2.068,1.792,3.841,3.842,3.841
		C200.498,41.713,202.272,39.94,202.272,37.872 M222.452,25.228c-1.754-2.304-4.454-3.604-7.646-3.604
		c-6.09,0-10.169,4.274-10.169,10.044c0,5.79,4.079,10.045,10.169,10.045c3.192,0,5.873-1.28,7.666-3.585l-3.666-3.131
		c-1.083,1.182-2.503,1.93-4.158,1.93c-2.661,0-4.769-2.068-4.769-5.259c0-3.17,2.128-5.258,4.789-5.258
		c1.675,0,2.916,0.67,4.079,1.91L222.452,25.228 M230.555,12.69h-5.144v28.36h5.144V12.69z M239.197,31.573
		c0-3.092,2.168-5.258,5.065-5.258c2.897,0,5.085,2.166,5.085,5.258c0,3.092-2.188,5.258-5.085,5.258
		C241.365,36.831,239.197,34.665,239.197,31.573 M254.609,31.573c0-5.751-4.395-10.044-10.347-10.044
		c-5.932,0-10.307,4.293-10.307,10.044c0,5.751,4.375,10.044,10.307,10.044C250.214,41.617,254.609,37.324,254.609,31.573
		 M276.027,22.041h-5.124v10.497c0,3.053-1.695,4.293-3.902,4.293c-2.227,0-3.902-1.24-3.902-4.293V22.041h-5.144v10.95
		c0,6.026,4.257,8.626,9.046,8.626c4.769,0,9.026-2.6,9.026-8.626V22.041z M284.561,31.573c0-2.915,1.911-5.258,4.927-5.258
		c2.936,0,4.926,2.245,4.926,5.258c0,3.014-1.99,5.259-4.926,5.259C286.472,36.832,284.561,34.488,284.561,31.573 M294.158,24.03
		c-1.242-1.497-3.055-2.501-5.616-2.501c-5.262,0-9.243,4.313-9.243,10.044c0,5.731,3.981,10.045,9.243,10.045
		c2.62,0,4.473-1.064,5.715-2.6v2.107h5.025v-28.36h-5.124V24.03"/>
	<g>
		<defs>
			<path id="SVGID_1_" d="M12.678,23.795L2.109,20.233c1.767-5.237,4.952-9.891,9.209-13.455c4.31-3.607,9.519-5.929,15.068-6.714
				l1.563,11.038c-3.483,0.493-6.756,1.953-9.468,4.222C15.796,17.572,13.789,20.501,12.678,23.795 M30.638,59.936
				c16.599,0,30.103-13.496,30.103-30.085H49.586c0,10.442-8.5,18.936-18.948,18.936c-10.448,0-18.948-8.494-18.948-18.936
				c0-0.247,0.006-0.497,0.014-0.745L0.558,28.681c-0.015,0.388-0.022,0.782-0.022,1.17C0.536,46.44,14.039,59.936,30.638,59.936
				 M50.388,7.145c-4.393-3.819-9.752-6.267-15.497-7.081l-1.564,11.038c3.607,0.511,6.976,2.051,9.74,4.454L50.388,7.145z"/>
		</defs>
		<clipPath id="SVGID_00000098925925785842557610000012827932941169327803_">
			<use xlink:href="#SVGID_1_"  overflow="visible"/>
		</clipPath>
		
			<linearGradient id="SVGID_00000183248060668445766640000002815117666073924224_" gradientUnits="userSpaceOnUse" x1="0.3649" y1="-0.2739" x2="60.9129" y2="60.2741">
			<stop  offset="0" style="stop-color:#00FFBE"/>
			<stop  offset="0" style="stop-color:#00BEFF"/>
			<stop  offset="1" style="stop-color:#00F0BE"/>
		</linearGradient>
		
			<rect x="0.027" y="0.064" clip-path="url(#SVGID_00000098925925785842557610000012827932941169327803_)" fill="url(#SVGID_00000183248060668445766640000002815117666073924224_)" width="61.224" height="59.872"/>
	</g>
</g>
</svg>
